<?xml version="1.0" encoding="UTF-8"?>
<svg xmlns="http://www.w3.org/2000/svg" xmlns:xlink="http://www.w3.org/1999/xlink" width="456px" height="456px" viewBox="5 0 456 456" version="1.1">
<g id="surface1">
<path style=" stroke:none;fill-rule:nonzero;fill:rgb(2.745098%,41.568627%,88.235294%);fill-opacity:1;" d="M 287.660156 456.378906 C 191.773438 456.378906 96.078125 456.378906 0.378906 456.378906 C 0.378906 304.378906 0.378906 152.378906 0.378906 0.378906 C 152.378906 0.378906 304.378906 0.378906 456.378906 0.378906 C 456.378906 152.378906 456.378906 304.378906 456.378906 456.378906 C 400.203125 456.378906 344.027344 456.378906 287.660156 456.378906 M 241.484375 386.84375 C 253.804688 386.53125 265.9375 384.832031 277.855469 381.683594 C 342.984375 364.484375 390.964844 307.019531 395.320312 239.367188 C 396.339844 223.519531 395.261719 207.851562 391.660156 192.410156 C 372.28125 109.308594 290.710938 56.46875 206.878906 72.71875 C 176.71875 78.5625 150.164062 91.875 128.210938 113.324219 C 87.296875 153.292969 71.863281 201.949219 81.535156 258.207031 C 86.761719 288.609375 100.667969 315.085938 122.039062 337.3125 C 154.460938 371.035156 194.292969 387.453125 241.484375 386.84375 Z M 241.484375 386.84375 "/>
<path style=" stroke:none;fill-rule:nonzero;fill:rgb(100%,100%,100%);fill-opacity:1;" d="M 241.292969 386.847656 C 194.292969 387.453125 154.460938 371.035156 122.039062 337.3125 C 100.667969 315.085938 86.761719 288.609375 81.535156 258.207031 C 71.863281 201.949219 87.296875 153.292969 128.210938 113.324219 C 150.164062 91.875 176.71875 78.5625 206.878906 72.71875 C 290.710938 56.46875 372.28125 109.308594 391.660156 192.410156 C 395.261719 207.851562 396.339844 223.519531 395.320312 239.367188 C 390.964844 307.019531 342.984375 364.484375 277.855469 381.683594 C 265.9375 384.832031 253.804688 386.53125 241.292969 386.847656 M 186.621094 178.453125 C 184.457031 181.570312 182.117188 184.578125 180.160156 187.820312 C 171.890625 201.535156 167.328125 216.453125 165.972656 232.398438 C 164.683594 247.605469 165.953125 262.484375 171.75 276.746094 C 176.28125 287.890625 183.179688 297.253906 193.175781 304.15625 C 204.15625 311.734375 216.402344 314.984375 229.660156 315.09375 C 248.84375 315.25 266.332031 310.445312 281.1875 297.832031 C 284.386719 295.117188 287.265625 292.027344 290.3125 289.085938 C 285.695312 283.550781 281.433594 278.375 277.082031 273.269531 C 275.277344 271.152344 272.8125 270.71875 270.339844 271.703125 C 268.617188 272.390625 266.929688 273.4375 265.558594 274.6875 C 258.589844 281.027344 250.304688 283.84375 241.050781 284.507812 C 229.847656 285.308594 220.476562 281.886719 213.367188 273.019531 C 208.839844 267.375 206.113281 260.804688 204.90625 253.761719 C 201.925781 236.367188 203.496094 219.398438 211.390625 203.441406 C 218.453125 189.160156 229.472656 179.523438 245.65625 176.898438 C 254.582031 175.453125 263.378906 175.914062 271.414062 180.632812 C 274.453125 182.417969 277.113281 184.832031 280.066406 186.777344 C 283.460938 189.011719 287.128906 188.707031 290.238281 186.132812 C 291.109375 185.410156 291.945312 184.621094 292.691406 183.769531 C 296.574219 179.34375 300.382812 174.851562 304.308594 170.464844 C 305.28125 169.378906 305.1875 168.691406 304.355469 167.597656 C 296.722656 157.527344 286.671875 151.085938 274.554688 147.867188 C 262.082031 144.550781 249.460938 144.691406 236.925781 147.285156 C 216.511719 151.511719 199.910156 162.105469 186.621094 178.453125 Z M 186.621094 178.453125 "/>
<path style=" stroke:none;fill-rule:nonzero;fill:rgb(3.137255%,41.568627%,88.235294%);fill-opacity:1;" d="M 186.703125 178.347656 C 199.910156 162.105469 216.511719 151.511719 236.925781 147.285156 C 249.460938 144.691406 262.082031 144.550781 274.554688 147.867188 C 286.671875 151.085938 296.722656 157.527344 304.355469 167.597656 C 305.1875 168.691406 305.28125 169.378906 304.308594 170.464844 C 300.382812 174.851562 296.574219 179.34375 292.691406 183.769531 C 291.945312 184.621094 291.109375 185.410156 290.238281 186.132812 C 287.128906 188.707031 283.460938 189.011719 280.066406 186.777344 C 277.113281 184.832031 274.453125 182.417969 271.414062 180.632812 C 263.378906 175.914062 254.582031 175.453125 245.65625 176.898438 C 229.472656 179.523438 218.453125 189.160156 211.390625 203.441406 C 203.496094 219.398438 201.925781 236.367188 204.90625 253.761719 C 206.113281 260.804688 208.839844 267.375 213.367188 273.019531 C 220.476562 281.886719 229.847656 285.308594 241.050781 284.507812 C 250.304688 283.84375 258.589844 281.027344 265.558594 274.6875 C 266.929688 273.4375 268.617188 272.390625 270.339844 271.703125 C 272.8125 270.71875 275.277344 271.152344 277.082031 273.269531 C 281.433594 278.375 285.695312 283.550781 290.3125 289.085938 C 287.265625 292.027344 284.386719 295.117188 281.1875 297.832031 C 266.332031 310.445312 248.84375 315.25 229.660156 315.09375 C 216.402344 314.984375 204.15625 311.734375 193.175781 304.15625 C 183.179688 297.253906 176.28125 287.890625 171.75 276.746094 C 165.953125 262.484375 164.683594 247.605469 165.972656 232.398438 C 167.328125 216.453125 171.890625 201.535156 180.160156 187.820312 C 182.117188 184.578125 184.457031 181.570312 186.703125 178.347656 Z M 186.703125 178.347656 "/>
</g>
</svg>
