<?xml version="1.0" encoding="UTF-8"?>
<svg xmlns="http://www.w3.org/2000/svg" xmlns:xlink="http://www.w3.org/1999/xlink" width="456px" height="456px" viewBox="0 0 456 456" version="1.1">
<g id="surface1">
<path style=" stroke:none;fill-rule:nonzero;fill:rgb(5.098039%,40.392157%,70.980392%);fill-opacity:1;" d="M 253.460938 456.378906 C 168.972656 456.378906 84.675781 456.378906 0.378906 456.378906 C 0.378906 304.378906 0.378906 152.378906 0.378906 0.378906 C 152.378906 0.378906 304.378906 0.378906 456.378906 0.378906 C 456.378906 152.378906 456.378906 304.378906 456.378906 456.378906 C 388.804688 456.378906 321.226562 456.378906 253.460938 456.378906 M 317.488281 261.902344 C 341.589844 261.902344 365.6875 261.902344 389.839844 261.902344 C 389.839844 239.449219 389.839844 217.25 389.839844 195.078125 C 282.140625 195.078125 174.535156 195.078125 67 195.078125 C 67 217.414062 67 239.601562 67 261.902344 C 150.457031 261.902344 233.785156 261.902344 317.488281 261.902344 Z M 317.488281 261.902344 "/>
<path style=" stroke:none;fill-rule:nonzero;fill:rgb(90.588235%,91.764706%,89.803922%);fill-opacity:1;" d="M 317.300781 261.902344 C 233.785156 261.902344 150.457031 261.902344 67 261.902344 C 67 239.601562 67 217.414062 67 195.078125 C 174.535156 195.078125 282.140625 195.078125 389.839844 195.078125 C 389.839844 217.25 389.839844 239.449219 389.839844 261.902344 C 365.6875 261.902344 341.589844 261.902344 317.300781 261.902344 M 229.710938 260.085938 C 282.429688 260.085938 335.148438 260.085938 387.90625 260.085938 C 387.90625 238.855469 387.90625 217.921875 387.90625 196.894531 C 281.523438 196.894531 175.234375 196.894531 68.882812 196.894531 C 68.882812 217.976562 68.882812 238.960938 68.882812 259.933594 C 69.1875 259.992188 69.371094 260.0625 69.554688 260.0625 C 122.8125 260.070312 176.070312 260.078125 229.710938 260.085938 Z M 229.710938 260.085938 "/>
<path style=" stroke:none;fill-rule:nonzero;fill:rgb(5.490196%,40.392157%,70.980392%);fill-opacity:1;" d="M 229.519531 260.085938 C 176.070312 260.078125 122.8125 260.070312 69.554688 260.0625 C 69.371094 260.0625 69.1875 259.992188 68.882812 259.933594 C 68.882812 238.960938 68.882812 217.976562 68.882812 196.894531 C 175.234375 196.894531 281.523438 196.894531 387.90625 196.894531 C 387.90625 217.921875 387.90625 238.855469 387.90625 260.085938 C 335.148438 260.085938 282.429688 260.085938 229.519531 260.085938 M 278.941406 226.707031 C 279.144531 226.554688 279.351562 226.410156 279.546875 226.25 C 282.699219 223.65625 283.75 220.285156 282.875 216.394531 C 282.042969 212.714844 279.171875 211.132812 275.789062 210.796875 C 272.089844 210.429688 268.34375 210.582031 264.613281 210.519531 C 263.507812 210.5 262.398438 210.515625 261.261719 210.515625 C 259.753906 222.820312 258.28125 234.828125 256.792969 246.964844 C 261.835938 246.964844 266.597656 247.246094 271.296875 246.84375 C 273.625 246.648438 276.09375 245.558594 278.0625 244.230469 C 281.425781 241.957031 282.554688 238.367188 282.148438 234.394531 C 281.8125 231.066406 279.554688 229.351562 276.582031 228.375 C 276.503906 228.351562 276.460938 228.230469 276.375 228.125 C 277.164062 227.695312 277.9375 227.273438 278.941406 226.707031 M 127.230469 232.253906 C 127.382812 236.292969 128.464844 240 131.265625 243.03125 C 135.835938 247.988281 143.957031 248.921875 150.710938 245.3125 C 160.101562 240.296875 164.140625 226.289062 158.867188 217.019531 C 156.65625 213.132812 153.265625 210.792969 148.890625 210.246094 C 143.078125 209.515625 137.835938 211.042969 133.566406 215.210938 C 128.882812 219.785156 127.15625 225.523438 127.230469 232.253906 M 364.929688 215.019531 C 366.105469 215.625 367.335938 216.136719 368.4375 216.851562 C 370.464844 218.167969 370.8125 218.15625 372.285156 216.167969 C 372.574219 215.78125 372.804688 215.355469 373.042969 214.96875 C 372.84375 214.71875 372.734375 214.5625 372.605469 214.429688 C 367.464844 209.21875 358.066406 208.554688 351.167969 212.910156 C 342.839844 218.171875 339.304688 230.894531 343.726562 239.710938 C 345.867188 243.980469 349.351562 246.613281 354.023438 247.238281 C 358.730469 247.871094 363.339844 247.222656 367.65625 244.96875 C 369.328125 244.09375 370.183594 243.015625 370.324219 241.058594 C 370.566406 237.71875 371.121094 234.402344 371.527344 231.070312 C 371.585938 230.601562 371.535156 230.117188 371.535156 229.578125 C 367.980469 229.578125 364.578125 229.578125 361.132812 229.578125 C 361.050781 229.859375 360.960938 230.089844 360.917969 230.328125 C 360.464844 232.835938 360.546875 232.941406 363.015625 232.945312 C 364.199219 232.945312 365.382812 232.945312 366.683594 232.945312 C 366.441406 234.96875 366.035156 236.789062 366.058594 238.605469 C 366.089844 241.007812 364.914062 242.179688 362.769531 242.707031 C 362.339844 242.8125 361.917969 242.953125 361.488281 243.054688 C 353.417969 245.019531 347.820312 241.039062 347.140625 232.769531 C 347 231.078125 347.089844 229.34375 347.296875 227.65625 C 348.464844 218.171875 355.878906 212.757812 364.929688 215.019531 M 299.148438 237.332031 C 297.613281 240.492188 296.082031 243.648438 294.449219 247.003906 C 295.382812 247.003906 296.023438 246.921875 296.636719 247.019531 C 298.902344 247.382812 300.136719 246.398438 300.910156 244.289062 C 301.714844 242.101562 302.800781 240.011719 303.824219 237.910156 C 304.046875 237.457031 304.523438 236.808594 304.894531 236.804688 C 309.546875 236.726562 314.203125 236.753906 318.902344 236.753906 C 319.542969 239.613281 320.226562 242.246094 320.695312 244.914062 C 320.988281 246.570312 321.78125 247.1875 323.402344 247.023438 C 324.320312 246.929688 325.253906 247.003906 326.265625 247.003906 C 326.101562 246.214844 326 245.652344 325.867188 245.101562 C 323.226562 234.296875 320.597656 223.484375 317.902344 212.6875 C 317.699219 211.871094 318.019531 210.300781 316.410156 210.554688 C 314.746094 210.820312 312.730469 209.449219 311.511719 212.027344 C 307.542969 220.429688 303.375 228.738281 299.148438 237.332031 M 181.738281 243.597656 C 182.164062 240.214844 182.59375 236.832031 183.035156 233.324219 C 185.242188 233.324219 187.328125 233.34375 189.410156 233.320312 C 197.230469 233.21875 202.585938 227.664062 202.425781 219.835938 C 202.332031 215.160156 199.773438 211.542969 195.152344 211.019531 C 190.484375 210.492188 185.707031 210.90625 180.761719 210.90625 C 179.320312 222.691406 177.847656 234.765625 176.359375 246.9375 C 178.144531 246.9375 179.648438 246.9375 181.289062 246.9375 C 181.429688 245.914062 181.566406 244.921875 181.738281 243.597656 M 104.632812 210.136719 C 101.796875 210.613281 98.765625 210.613281 96.160156 211.660156 C 88.21875 214.855469 83.65625 223.445312 84.328125 233.085938 C 84.992188 242.683594 90.644531 247.824219 100.21875 247.34375 C 104.621094 247.125 108.246094 245.144531 111.171875 241.890625 C 109.140625 239.015625 109.140625 239.015625 106.535156 240.90625 C 106.328125 241.054688 106.128906 241.214844 105.910156 241.339844 C 99.878906 244.828125 91.882812 243.636719 89.894531 235.28125 C 88.589844 229.808594 89.457031 224.578125 92.65625 219.871094 C 96.566406 214.113281 105.382812 212.371094 110.285156 216.9375 C 111.320312 217.902344 112.179688 217.71875 112.984375 216.652344 C 113.402344 216.105469 113.855469 215.585938 114.324219 215.015625 C 111.875 211.945312 108.796875 210.347656 104.632812 210.136719 M 236.363281 217.144531 C 233.960938 220.828125 231.558594 224.507812 229.003906 228.425781 C 228.816406 227.949219 228.738281 227.742188 228.65625 227.539062 C 226.582031 222.378906 224.53125 217.207031 222.398438 212.074219 C 222.144531 211.460938 221.496094 210.679688 220.9375 210.601562 C 219.492188 210.390625 218 210.53125 216.292969 210.53125 C 219.242188 217.316406 222.011719 223.824219 224.910156 230.273438 C 225.667969 231.96875 225.867188 233.582031 225.59375 235.398438 C 225.027344 239.183594 224.617188 242.996094 224.128906 246.914062 C 225.917969 246.914062 227.472656 246.914062 229.117188 246.914062 C 229.632812 242.765625 230.074219 238.679688 230.679688 234.621094 C 230.867188 233.359375 231.28125 232.015625 231.976562 230.964844 C 235.898438 225.070312 239.9375 219.253906 243.933594 213.40625 C 244.527344 212.542969 245.105469 211.664062 245.878906 210.515625 C 244.890625 210.515625 244.265625 210.59375 243.667969 210.5 C 241.503906 210.15625 240.074219 210.980469 239.082031 212.933594 C 238.367188 214.335938 237.375 215.59375 236.363281 217.144531 Z M 236.363281 217.144531 "/>
<path style=" stroke:none;fill-rule:nonzero;fill:rgb(94.509804%,93.72549%,90.588235%);fill-opacity:1;" d="M 278.824219 226.777344 C 277.9375 227.273438 277.164062 227.695312 276.375 228.125 C 276.460938 228.230469 276.503906 228.351562 276.582031 228.375 C 279.554688 229.351562 281.8125 231.066406 282.148438 234.394531 C 282.554688 238.367188 281.425781 241.957031 278.0625 244.230469 C 276.09375 245.558594 273.625 246.648438 271.296875 246.84375 C 266.597656 247.246094 261.835938 246.964844 256.792969 246.964844 C 258.28125 234.828125 259.753906 222.820312 261.261719 210.515625 C 262.398438 210.515625 263.507812 210.5 264.613281 210.519531 C 268.34375 210.582031 272.089844 210.429688 275.789062 210.796875 C 279.171875 211.132812 282.042969 212.714844 282.875 216.394531 C 283.75 220.285156 282.699219 223.65625 279.546875 226.25 C 279.351562 226.410156 279.144531 226.554688 278.824219 226.777344 M 269.929688 230.28125 C 267.925781 230.28125 265.921875 230.28125 263.824219 230.28125 C 263.292969 234.671875 262.785156 238.847656 262.234375 243.367188 C 265.640625 243.175781 268.875 243.226562 272.03125 242.753906 C 275.492188 242.234375 277.515625 239.0625 277.28125 235.269531 C 277.09375 232.257812 275.1875 230.636719 271.429688 230.296875 C 271.050781 230.265625 270.671875 230.285156 269.929688 230.28125 M 272.867188 226.464844 C 274.09375 225.730469 275.554688 225.21875 276.496094 224.214844 C 278.269531 222.324219 278.535156 219.890625 277.773438 217.457031 C 277.054688 215.164062 275.023438 214.578125 272.953125 214.4375 C 270.640625 214.28125 268.304688 214.402344 265.808594 214.402344 C 265.300781 218.53125 264.800781 222.582031 264.253906 227.003906 C 267.171875 226.828125 269.863281 226.667969 272.867188 226.464844 Z M 272.867188 226.464844 "/>
<path style=" stroke:none;fill-rule:nonzero;fill:rgb(94.509804%,93.72549%,90.588235%);fill-opacity:1;" d="M 127.21875 232.085938 C 127.15625 225.523438 128.882812 219.785156 133.566406 215.210938 C 137.835938 211.042969 143.078125 209.515625 148.890625 210.246094 C 153.265625 210.792969 156.65625 213.132812 158.867188 217.019531 C 164.140625 226.289062 160.101562 240.296875 150.710938 245.3125 C 143.957031 248.921875 135.835938 247.988281 131.265625 243.03125 C 128.464844 240 127.382812 236.292969 127.21875 232.085938 M 152.175781 238.601562 C 155.863281 233.65625 156.699219 228.085938 155.453125 222.210938 C 154.597656 218.195312 152.179688 215.445312 147.941406 214.617188 C 143.101562 213.667969 138.085938 215.734375 135.34375 220.074219 C 132.203125 225.046875 131.539062 230.5 133.058594 236.121094 C 134.339844 240.875 138.5625 243.644531 143.234375 243.160156 C 146.695312 242.804688 149.699219 241.511719 152.175781 238.601562 Z M 152.175781 238.601562 "/>
<path style=" stroke:none;fill-rule:nonzero;fill:rgb(94.509804%,93.72549%,90.588235%);fill-opacity:1;" d="M 364.785156 214.96875 C 355.878906 212.757812 348.464844 218.171875 347.296875 227.65625 C 347.089844 229.34375 347 231.078125 347.140625 232.769531 C 347.820312 241.039062 353.417969 245.019531 361.488281 243.054688 C 361.917969 242.953125 362.339844 242.8125 362.769531 242.707031 C 364.914062 242.179688 366.089844 241.007812 366.058594 238.605469 C 366.035156 236.789062 366.441406 234.96875 366.683594 232.945312 C 365.382812 232.945312 364.199219 232.945312 363.015625 232.945312 C 360.546875 232.941406 360.464844 232.835938 360.917969 230.328125 C 360.960938 230.089844 361.050781 229.859375 361.132812 229.578125 C 364.578125 229.578125 367.980469 229.578125 371.535156 229.578125 C 371.535156 230.117188 371.585938 230.601562 371.527344 231.070312 C 371.121094 234.402344 370.566406 237.71875 370.324219 241.058594 C 370.183594 243.015625 369.328125 244.09375 367.65625 244.96875 C 363.339844 247.222656 358.730469 247.871094 354.023438 247.238281 C 349.351562 246.613281 345.867188 243.980469 343.726562 239.710938 C 339.304688 230.894531 342.839844 218.171875 351.167969 212.910156 C 358.066406 208.554688 367.464844 209.21875 372.605469 214.429688 C 372.734375 214.5625 372.84375 214.71875 373.042969 214.96875 C 372.804688 215.355469 372.574219 215.78125 372.285156 216.167969 C 370.8125 218.15625 370.464844 218.167969 368.4375 216.851562 C 367.335938 216.136719 366.105469 215.625 364.785156 214.96875 Z M 364.785156 214.96875 "/>
<path style=" stroke:none;fill-rule:nonzero;fill:rgb(94.509804%,93.72549%,90.588235%);fill-opacity:1;" d="M 299.214844 237.207031 C 303.375 228.738281 307.542969 220.429688 311.511719 212.027344 C 312.730469 209.449219 314.746094 210.820312 316.410156 210.554688 C 318.019531 210.300781 317.699219 211.871094 317.902344 212.6875 C 320.597656 223.484375 323.226562 234.296875 325.867188 245.101562 C 326 245.652344 326.101562 246.214844 326.265625 247.003906 C 325.253906 247.003906 324.320312 246.929688 323.402344 247.023438 C 321.78125 247.1875 320.988281 246.570312 320.695312 244.914062 C 320.226562 242.246094 319.542969 239.613281 318.902344 236.753906 C 314.203125 236.753906 309.546875 236.726562 304.894531 236.804688 C 304.523438 236.808594 304.046875 237.457031 303.824219 237.910156 C 302.800781 240.011719 301.714844 242.101562 300.910156 244.289062 C 300.136719 246.398438 298.902344 247.382812 296.636719 247.019531 C 296.023438 246.921875 295.382812 247.003906 294.449219 247.003906 C 296.082031 243.648438 297.613281 240.492188 299.214844 237.207031 M 312.839844 218.800781 C 310.585938 223.566406 308.335938 228.328125 306.035156 233.199219 C 310.242188 233.199219 314.121094 233.199219 318.136719 233.199219 C 316.851562 227.464844 315.601562 221.878906 314.226562 215.746094 C 313.636719 217.0625 313.304688 217.804688 312.839844 218.800781 Z M 312.839844 218.800781 "/>
<path style=" stroke:none;fill-rule:nonzero;fill:rgb(94.509804%,93.72549%,90.588235%);fill-opacity:1;" d="M 181.71875 243.765625 C 181.566406 244.921875 181.429688 245.914062 181.289062 246.9375 C 179.648438 246.9375 178.144531 246.9375 176.359375 246.9375 C 177.847656 234.765625 179.320312 222.691406 180.761719 210.90625 C 185.707031 210.90625 190.484375 210.492188 195.152344 211.019531 C 199.773438 211.542969 202.332031 215.160156 202.425781 219.835938 C 202.585938 227.664062 197.230469 233.21875 189.410156 233.320312 C 187.328125 233.34375 185.242188 233.324219 183.035156 233.324219 C 182.59375 236.832031 182.164062 240.214844 181.71875 243.765625 M 194.730469 215.378906 C 191.769531 213.765625 188.582031 214.496094 185.363281 214.304688 C 184.726562 219.425781 184.109375 224.371094 183.445312 229.683594 C 186.242188 229.484375 188.921875 229.566406 191.480469 229.046875 C 194.597656 228.414062 196.503906 226.183594 197.125 223.0625 C 197.6875 220.234375 197.667969 217.472656 194.730469 215.378906 Z M 194.730469 215.378906 "/>
<path style=" stroke:none;fill-rule:nonzero;fill:rgb(94.509804%,93.72549%,90.588235%);fill-opacity:1;" d="M 104.808594 210.140625 C 108.796875 210.347656 111.875 211.945312 114.324219 215.015625 C 113.855469 215.585938 113.402344 216.105469 112.984375 216.652344 C 112.179688 217.71875 111.320312 217.902344 110.285156 216.9375 C 105.382812 212.371094 96.566406 214.113281 92.65625 219.871094 C 89.457031 224.578125 88.589844 229.808594 89.894531 235.28125 C 91.882812 243.636719 99.878906 244.828125 105.910156 241.339844 C 106.128906 241.214844 106.328125 241.054688 106.535156 240.90625 C 109.140625 239.015625 109.140625 239.015625 111.171875 241.890625 C 108.246094 245.144531 104.621094 247.125 100.21875 247.34375 C 90.644531 247.824219 84.992188 242.683594 84.328125 233.085938 C 83.65625 223.445312 88.21875 214.855469 96.160156 211.660156 C 98.765625 210.613281 101.796875 210.613281 104.808594 210.140625 Z M 104.808594 210.140625 "/>
<path style=" stroke:none;fill-rule:nonzero;fill:rgb(94.117647%,93.72549%,90.196078%);fill-opacity:1;" d="M 236.433594 217.03125 C 237.375 215.59375 238.367188 214.335938 239.082031 212.933594 C 240.074219 210.980469 241.503906 210.15625 243.667969 210.5 C 244.265625 210.59375 244.890625 210.515625 245.878906 210.515625 C 245.105469 211.664062 244.527344 212.542969 243.933594 213.40625 C 239.9375 219.253906 235.898438 225.070312 231.976562 230.964844 C 231.28125 232.015625 230.867188 233.359375 230.679688 234.621094 C 230.074219 238.679688 229.632812 242.765625 229.117188 246.914062 C 227.472656 246.914062 225.917969 246.914062 224.128906 246.914062 C 224.617188 242.996094 225.027344 239.183594 225.59375 235.398438 C 225.867188 233.582031 225.667969 231.96875 224.910156 230.273438 C 222.011719 223.824219 219.242188 217.316406 216.292969 210.53125 C 218 210.53125 219.492188 210.390625 220.9375 210.601562 C 221.496094 210.679688 222.144531 211.460938 222.398438 212.074219 C 224.53125 217.207031 226.582031 222.378906 228.65625 227.539062 C 228.738281 227.742188 228.816406 227.949219 229.003906 228.425781 C 231.558594 224.507812 233.960938 220.828125 236.433594 217.03125 Z M 236.433594 217.03125 "/>
<path style=" stroke:none;fill-rule:nonzero;fill:rgb(5.882353%,40.784314%,70.980392%);fill-opacity:1;" d="M 270.109375 230.28125 C 270.671875 230.285156 271.050781 230.265625 271.429688 230.296875 C 275.1875 230.636719 277.09375 232.257812 277.28125 235.269531 C 277.515625 239.0625 275.492188 242.234375 272.03125 242.753906 C 268.875 243.226562 265.640625 243.175781 262.234375 243.367188 C 262.785156 238.847656 263.292969 234.671875 263.824219 230.28125 C 265.921875 230.28125 267.925781 230.28125 270.109375 230.28125 Z M 270.109375 230.28125 "/>
<path style=" stroke:none;fill-rule:nonzero;fill:rgb(5.882353%,40.784314%,70.980392%);fill-opacity:1;" d="M 272.710938 226.488281 C 269.863281 226.667969 267.171875 226.828125 264.253906 227.003906 C 264.800781 222.582031 265.300781 218.53125 265.808594 214.402344 C 268.304688 214.402344 270.640625 214.28125 272.953125 214.4375 C 275.023438 214.578125 277.054688 215.164062 277.773438 217.457031 C 278.535156 219.890625 278.269531 222.324219 276.496094 224.214844 C 275.554688 225.21875 274.09375 225.730469 272.710938 226.488281 Z M 272.710938 226.488281 "/>
<path style=" stroke:none;fill-rule:nonzero;fill:rgb(5.882353%,40.784314%,70.980392%);fill-opacity:1;" d="M 152.089844 238.707031 C 149.699219 241.511719 146.695312 242.804688 143.234375 243.160156 C 138.5625 243.644531 134.339844 240.875 133.058594 236.121094 C 131.539062 230.5 132.203125 225.046875 135.34375 220.074219 C 138.085938 215.734375 143.101562 213.667969 147.941406 214.617188 C 152.179688 215.445312 154.597656 218.195312 155.453125 222.210938 C 156.699219 228.085938 155.863281 233.65625 152.089844 238.707031 Z M 152.089844 238.707031 "/>
<path style=" stroke:none;fill-rule:nonzero;fill:rgb(7.058824%,41.568627%,71.372549%);fill-opacity:1;" d="M 312.90625 218.675781 C 313.304688 217.804688 313.636719 217.0625 314.226562 215.746094 C 315.601562 221.878906 316.851562 227.464844 318.136719 233.199219 C 314.121094 233.199219 310.242188 233.199219 306.035156 233.199219 C 308.335938 228.328125 310.585938 223.566406 312.90625 218.675781 Z M 312.90625 218.675781 "/>
<path style=" stroke:none;fill-rule:nonzero;fill:rgb(5.882353%,40.784314%,70.980392%);fill-opacity:1;" d="M 194.859375 215.449219 C 197.667969 217.472656 197.6875 220.234375 197.125 223.0625 C 196.503906 226.183594 194.597656 228.414062 191.480469 229.046875 C 188.921875 229.566406 186.242188 229.484375 183.445312 229.683594 C 184.109375 224.371094 184.726562 219.425781 185.363281 214.304688 C 188.582031 214.496094 191.769531 213.765625 194.859375 215.449219 Z M 194.859375 215.449219 "/>
</g>
</svg>
